<?xml version="1.0" encoding="UTF-8" standalone="no"?><!DOCTYPE svg PUBLIC "-//W3C//DTD SVG 1.1//EN" "http://www.w3.org/Graphics/SVG/1.1/DTD/svg11.dtd"><svg width="100%" height="100%" viewBox="0 0 123 123" version="1.1" xmlns="http://www.w3.org/2000/svg" xmlns:xlink="http://www.w3.org/1999/xlink" xml:space="preserve" xmlns:serif="http://www.serif.com/" style="fill-rule:evenodd;clip-rule:evenodd;stroke-linecap:round;stroke-linejoin:round;stroke-miterlimit:1.5;"><g id="TV"><g id="Antennas"><ellipse cx="62.686" cy="30.491" rx="24.893" ry="5.267"/><g id="Antenna"><path d="M41.49,4.277l-2.766,2.766l21.197,21.196l2.765,-2.765l-21.196,-21.197Z"/><path d="M37.277,2.83c1.562,-1.562 4.098,-1.562 5.66,0c1.562,1.562 1.562,4.098 0,5.66c-1.562,1.561 -4.098,1.561 -5.66,0c-1.562,-1.562 -1.562,-4.098 0,-5.66Z"/></g><g id="Antenna1" serif:id="Antenna"><path d="M86.649,7.043l-2.766,-2.766l-21.197,21.197l2.766,2.765l21.197,-21.196Z"/><path d="M88.096,2.83c1.562,1.562 1.562,4.098 0,5.66c-1.562,1.561 -4.098,1.561 -5.66,0c-1.562,-1.562 -1.562,-4.098 0,-5.66c1.562,-1.562 4.098,-1.562 5.66,0Z"/></g></g><path id="Frame" d="M121.807,34.346c0,-2.128 -1.728,-3.855 -3.856,-3.855l-113.022,0c-2.128,0 -3.856,1.727 -3.856,3.855l0,75.448c0,2.128 1.728,3.856 3.856,3.856l113.022,0c2.128,0 3.856,-1.728 3.856,-3.856l0,-75.448Z" style="fill:#8b4009;"/><g id="Speaker"><path id="Frame1" serif:id="Frame" d="M121.807,79.112l0,30.682c0,2.128 -1.728,3.856 -3.856,3.856l-19.946,0l0,-33.327c0,-0.668 0.543,-1.211 1.211,-1.211l22.591,0Z" style="fill:url(#_Linear1);"/><g id="Grill"><g><circle cx="107.836" cy="80.878" r="0.743"/></g><g><circle cx="107.836" cy="82.945" r="0.743"/></g><g><circle cx="107.836" cy="85.012" r="0.743"/></g><g><circle cx="107.836" cy="87.079" r="0.743"/></g><g><circle cx="107.836" cy="89.146" r="0.743"/></g><g><circle cx="107.836" cy="91.213" r="0.743"/></g><g><circle cx="107.836" cy="93.28" r="0.743"/></g><g><circle cx="107.836" cy="95.347" r="0.743"/></g><g><circle cx="107.836" cy="97.414" r="0.743"/></g><g><circle cx="107.836" cy="99.481" r="0.743"/></g><g><circle cx="107.836" cy="101.548" r="0.743"/></g><g><circle cx="107.836" cy="103.615" r="0.743"/></g><g><circle cx="107.836" cy="105.682" r="0.743"/></g><g><circle cx="107.836" cy="107.749" r="0.743"/></g><g><circle cx="107.836" cy="109.816" r="0.743"/></g><g><circle cx="107.836" cy="111.883" r="0.743"/></g><g><circle cx="109.906" cy="80.878" r="0.743"/></g><g><circle cx="109.906" cy="82.945" r="0.743"/></g><g><circle cx="109.906" cy="85.012" r="0.743"/></g><g><circle cx="109.906" cy="87.079" r="0.743"/></g><g><circle cx="109.906" cy="89.146" r="0.743"/></g><g><circle cx="109.906" cy="91.213" r="0.743"/></g><g><circle cx="109.906" cy="93.28" r="0.743"/></g><g><circle cx="109.906" cy="95.347" r="0.743"/></g><g><circle cx="109.906" cy="97.414" r="0.743"/></g><g><circle cx="109.906" cy="99.481" r="0.743"/></g><g><circle cx="109.906" cy="101.548" r="0.743"/></g><g><circle cx="109.906" cy="103.615" r="0.743"/></g><g><circle cx="109.906" cy="105.682" r="0.743"/></g><g><circle cx="109.906" cy="107.749" r="0.743"/></g><g><circle cx="109.906" cy="109.816" r="0.743"/></g><g><circle cx="109.906" cy="111.883" r="0.743"/></g><g><circle cx="111.976" cy="80.878" r="0.743"/></g><g><circle cx="111.976" cy="82.945" r="0.743"/></g><g><circle cx="111.976" cy="85.012" r="0.743"/></g><g><circle cx="111.976" cy="87.079" r="0.743"/></g><g><circle cx="111.976" cy="89.146" r="0.743"/></g><g><circle cx="111.976" cy="91.213" r="0.743"/></g><g><circle cx="111.976" cy="93.28" r="0.743"/></g><g><circle cx="111.976" cy="95.347" r="0.743"/></g><g><circle cx="111.976" cy="97.414" r="0.743"/></g><g><circle cx="111.976" cy="99.481" r="0.743"/></g><g><circle cx="111.976" cy="101.548" r="0.743"/></g><g><circle cx="111.976" cy="103.615" r="0.743"/></g><g><circle cx="111.976" cy="105.682" r="0.743"/></g><g><circle cx="111.976" cy="107.749" r="0.743"/></g><g><circle cx="111.976" cy="109.816" r="0.743"/></g><g><circle cx="111.976" cy="111.883" r="0.743"/></g><g><circle cx="114.046" cy="80.878" r="0.743"/></g><g><circle cx="114.046" cy="82.945" r="0.743"/></g><g><circle cx="114.046" cy="85.012" r="0.743"/></g><g><circle cx="114.046" cy="87.079" r="0.743"/></g><g><circle cx="114.046" cy="89.146" r="0.743"/></g><g><circle cx="114.046" cy="91.213" r="0.743"/></g><g><circle cx="114.046" cy="93.28" r="0.743"/></g><g><circle cx="114.046" cy="95.347" r="0.743"/></g><g><circle cx="114.046" cy="97.414" r="0.743"/></g><g><circle cx="114.046" cy="99.481" r="0.743"/></g><g><circle cx="114.046" cy="101.548" r="0.743"/></g><g><circle cx="114.046" cy="103.615" r="0.743"/></g><g><circle cx="114.046" cy="105.682" r="0.743"/></g><g><circle cx="114.046" cy="107.749" r="0.743"/></g><g><circle cx="114.046" cy="109.816" r="0.743"/></g><g><circle cx="114.046" cy="111.883" r="0.743"/></g><g><circle cx="116.115" cy="80.878" r="0.743"/></g><g><circle cx="116.115" cy="82.945" r="0.743"/></g><g><circle cx="116.115" cy="85.012" r="0.743"/></g><g><circle cx="116.115" cy="87.079" r="0.743"/></g><g><circle cx="116.115" cy="89.146" r="0.743"/></g><g><circle cx="116.115" cy="91.213" r="0.743"/></g><g><circle cx="116.115" cy="93.28" r="0.743"/></g><g><circle cx="116.115" cy="95.347" r="0.743"/></g><g><circle cx="116.115" cy="97.414" r="0.743"/></g><g><circle cx="116.115" cy="99.481" r="0.743"/></g><g><circle cx="116.115" cy="101.548" r="0.743"/></g><g><circle cx="116.115" cy="103.615" r="0.743"/></g><g><circle cx="116.115" cy="105.682" r="0.743"/></g><g><circle cx="116.115" cy="107.749" r="0.743"/></g><g><circle cx="116.115" cy="109.816" r="0.743"/></g><g><circle cx="116.115" cy="111.883" r="0.743"/></g><g><circle cx="118.185" cy="80.878" r="0.743"/></g><g><circle cx="118.185" cy="82.945" r="0.743"/></g><g><circle cx="118.185" cy="85.012" r="0.743"/></g><g><circle cx="118.185" cy="87.079" r="0.743"/></g><g><circle cx="118.185" cy="89.146" r="0.743"/></g><g><circle cx="118.185" cy="91.213" r="0.743"/></g><g><circle cx="118.185" cy="93.28" r="0.743"/></g><g><circle cx="118.185" cy="95.347" r="0.743"/></g><g><circle cx="118.185" cy="97.414" r="0.743"/></g><g><circle cx="118.185" cy="99.481" r="0.743"/></g><g><circle cx="118.185" cy="101.548" r="0.743"/></g><g><circle cx="118.185" cy="103.615" r="0.743"/></g><g><circle cx="118.185" cy="105.682" r="0.743"/></g><g><circle cx="118.185" cy="107.749" r="0.743"/></g><g><circle cx="118.185" cy="109.816" r="0.743"/></g><g><circle cx="118.185" cy="111.883" r="0.743"/></g><g><circle cx="120.255" cy="80.878" r="0.743"/></g><g><circle cx="120.255" cy="82.945" r="0.743"/></g><g><circle cx="120.255" cy="85.012" r="0.743"/></g><g><circle cx="120.255" cy="87.079" r="0.743"/></g><g><circle cx="120.255" cy="89.146" r="0.743"/></g><g><circle cx="120.255" cy="91.213" r="0.743"/></g><g><circle cx="120.255" cy="93.28" r="0.743"/></g><g><circle cx="120.255" cy="95.347" r="0.743"/></g><g><circle cx="120.255" cy="97.414" r="0.743"/></g><g><circle cx="120.255" cy="99.481" r="0.743"/></g><g><circle cx="120.255" cy="101.548" r="0.743"/></g><g><circle cx="120.255" cy="103.615" r="0.743"/></g><g><circle cx="120.255" cy="105.682" r="0.743"/></g><g><circle cx="120.255" cy="107.749" r="0.743"/></g><g><circle cx="120.255" cy="109.816" r="0.743"/></g><g><circle cx="105.766" cy="80.878" r="0.743"/></g><g><circle cx="103.697" cy="80.878" r="0.743"/></g><g><circle cx="101.627" cy="80.878" r="0.743"/></g><g><circle cx="99.557" cy="80.878" r="0.743"/></g><g><circle cx="105.766" cy="82.945" r="0.743"/></g><g><circle cx="103.697" cy="82.945" r="0.743"/></g><g><circle cx="101.627" cy="82.945" r="0.743"/></g><g><circle cx="99.557" cy="82.945" r="0.743"/></g><g><circle cx="105.766" cy="85.012" r="0.743"/></g><g><circle cx="103.697" cy="85.012" r="0.743"/></g><g><circle cx="101.627" cy="85.012" r="0.743"/></g><g><circle cx="99.557" cy="85.012" r="0.743"/></g><g><circle cx="105.766" cy="87.079" r="0.743"/></g><g><circle cx="103.697" cy="87.079" r="0.743"/></g><g><circle cx="101.627" cy="87.079" r="0.743"/></g><g><circle cx="99.557" cy="87.079" r="0.743"/></g><g><circle cx="105.766" cy="89.146" r="0.743"/></g><g><circle cx="103.697" cy="89.146" r="0.743"/></g><g><circle cx="101.627" cy="89.146" r="0.743"/></g><g><circle cx="99.557" cy="89.146" r="0.743"/></g><g><circle cx="105.766" cy="91.213" r="0.743"/></g><g><circle cx="103.697" cy="91.213" r="0.743"/></g><g><circle cx="101.627" cy="91.213" r="0.743"/></g><g><circle cx="99.557" cy="91.213" r="0.743"/></g><g><circle cx="105.766" cy="93.28" r="0.743"/></g><g><circle cx="103.697" cy="93.28" r="0.743"/></g><g><circle cx="101.627" cy="93.28" r="0.743"/></g><g><circle cx="99.557" cy="93.28" r="0.743"/></g><g><circle cx="105.766" cy="95.347" r="0.743"/></g><g><circle cx="103.697" cy="95.347" r="0.743"/></g><g><circle cx="101.627" cy="95.347" r="0.743"/></g><g><circle cx="99.557" cy="95.347" r="0.743"/></g><g><circle cx="105.766" cy="97.414" r="0.743"/></g><g><circle cx="103.697" cy="97.414" r="0.743"/></g><g><circle cx="101.627" cy="97.414" r="0.743"/></g><g><circle cx="99.557" cy="97.414" r="0.743"/></g><g><circle cx="105.766" cy="99.481" r="0.743"/></g><g><circle cx="103.697" cy="99.481" r="0.743"/></g><g><circle cx="101.627" cy="99.481" r="0.743"/></g><g><circle cx="99.557" cy="99.481" r="0.743"/></g><g><circle cx="105.766" cy="101.548" r="0.743"/></g><g><circle cx="103.697" cy="101.548" r="0.743"/></g><g><circle cx="101.627" cy="101.548" r="0.743"/></g><g><circle cx="99.557" cy="101.548" r="0.743"/></g><g><circle cx="105.766" cy="103.615" r="0.743"/></g><g><circle cx="103.697" cy="103.615" r="0.743"/></g><g><circle cx="101.627" cy="103.615" r="0.743"/></g><g><circle cx="99.557" cy="103.615" r="0.743"/></g><g><circle cx="105.766" cy="105.682" r="0.743"/></g><g><circle cx="103.697" cy="105.682" r="0.743"/></g><g><circle cx="101.627" cy="105.682" r="0.743"/></g><g><circle cx="99.557" cy="105.682" r="0.743"/></g><g><circle cx="105.766" cy="107.749" r="0.743"/></g><g><circle cx="103.697" cy="107.749" r="0.743"/></g><g><circle cx="101.627" cy="107.749" r="0.743"/></g><g><circle cx="99.557" cy="107.749" r="0.743"/></g><g><circle cx="105.766" cy="109.816" r="0.743"/></g><g><circle cx="103.697" cy="109.816" r="0.743"/></g><g><circle cx="101.627" cy="109.816" r="0.743"/></g><g><circle cx="99.557" cy="109.816" r="0.743"/></g><g><circle cx="105.766" cy="111.883" r="0.743"/></g><g><circle cx="103.697" cy="111.883" r="0.743"/></g><g><circle cx="101.627" cy="111.883" r="0.743"/></g><g><circle cx="99.557" cy="111.883" r="0.743"/></g></g></g><path id="Screen" d="M93.322,45.097c0,-3.352 -2.721,-6.074 -6.074,-6.074c-23.357,-1.431 -46.803,-1.44 -70.339,0c-3.352,0 -6.073,2.722 -6.073,6.074c-1.338,17.427 -1.357,35.053 0,52.886c0,3.353 2.721,6.074 6.073,6.074c22.951,0.966 46.397,0.966 70.339,0c3.353,0 6.074,-2.721 6.074,-6.074c1.689,-18.047 1.692,-35.677 0,-52.886Z" style="fill:#1891da;"/><g id="Dial"><g id="Background"><path d="M113.894,73.153c-3.343,3.343 -8.772,3.343 -12.115,0c-3.343,-3.343 -3.343,-8.772 0,-12.115c3.343,-3.343 8.772,-3.343 12.115,0c3.343,3.343 3.343,8.772 0,12.115Z" style="fill:url(#_Radial2);"/><path d="M112.119,71.378c-2.364,2.363 -6.201,2.363 -8.565,0c-2.363,-2.364 -2.363,-6.201 0,-8.565c2.364,-2.363 6.201,-2.363 8.565,0c2.363,2.364 2.363,6.201 0,8.565Z" style="fill:#ebebeb;"/></g><g id="Lines"><g id="Base"><g><path d="M112.001,63.061l-0.13,-0.13l-0.827,0.827l0.13,0.13l0.827,-0.827Z" style="stroke:#000;stroke-width:0.09px;"/></g><g><path d="M103.672,71.13l0.13,0.13l0.827,-0.827l-0.13,-0.13l-0.827,0.827Z" style="stroke:#000;stroke-width:0.09px;"/></g><g><path d="M111.871,71.26l0.13,-0.13l-0.827,-0.827l-0.13,0.13l0.827,0.827Z" style="stroke:#000;stroke-width:0.09px;"/></g><g><path d="M103.802,62.931l-0.13,0.13l0.827,0.827l0.13,-0.13l-0.827,-0.827Z" style="stroke:#000;stroke-width:0.09px;"/></g></g><g id="Half"><g><path d="M113.634,67.188l0,-0.185l-1.169,0l0,0.185l1.169,0Z" style="stroke:#000;stroke-width:0.09px;"/></g><g><path d="M102.039,67.003l0,0.185l1.169,0l0,-0.185l-1.169,0Z" style="stroke:#000;stroke-width:0.09px;"/></g><g><rect x="107.744" y="71.724" width="0.184" height="1.169" style="stroke:#000;stroke-width:0.09px;"/></g><g><rect x="107.744" y="61.298" width="0.184" height="1.169" style="stroke:#000;stroke-width:0.09px;"/></g></g></g><g id="Hand-with-Base" serif:id="Hand with Base"><path id="Base1" serif:id="Base" d="M109.392,68.651c-0.859,0.858 -2.253,0.858 -3.111,0c-0.859,-0.858 -0.859,-2.252 0,-3.111c0.858,-0.858 2.252,-0.858 3.111,0c0.858,0.859 0.858,2.253 0,3.111Z" style="fill:#a6a6a6;"/><g id="Hand"><path d="M109.749,70.188l1.18,-1.18l-5.257,-5.257l-1.18,1.181l5.257,5.256Z" style="fill:#a6a6a6;stroke:#a6a6a6;stroke-width:0.12px;"/><path d="M111.532,70.791l-1.754,-0.574l1.18,-1.18l0.574,1.754Z" style="fill:#a6a6a6;stroke:#a6a6a6;stroke-width:0.12px;"/></g></g></g><g id="Dial1" serif:id="Dial"><g id="Background1" serif:id="Background"><path d="M113.894,40.455c3.343,3.343 3.343,8.772 0,12.115c-3.343,3.343 -8.772,3.343 -12.115,0c-3.343,-3.343 -3.343,-8.772 0,-12.115c3.343,-3.343 8.772,-3.343 12.115,0Z" style="fill:url(#_Radial3);"/><path d="M112.119,42.23c2.363,2.364 2.363,6.201 0,8.565c-2.364,2.363 -6.201,2.363 -8.565,0c-2.363,-2.364 -2.363,-6.201 0,-8.565c2.364,-2.363 6.201,-2.363 8.565,0Z" style="fill:#ebebeb;"/></g><g id="Lines1" serif:id="Lines"><g id="Base2" serif:id="Base"><g><path d="M103.802,42.348l-0.13,0.13l0.827,0.827l0.13,-0.13l-0.827,-0.827Z" style="stroke:#000;stroke-width:0.09px;"/></g><g><path d="M111.871,50.677l0.13,-0.13l-0.827,-0.827l-0.13,0.13l0.827,0.827Z" style="stroke:#000;stroke-width:0.09px;"/></g><g><path d="M112.001,42.478l-0.13,-0.13l-0.827,0.827l0.13,0.13l0.827,-0.827Z" style="stroke:#000;stroke-width:0.09px;"/></g><g><path d="M103.672,50.547l0.13,0.13l0.827,-0.827l-0.13,-0.13l-0.827,0.827Z" style="stroke:#000;stroke-width:0.09px;"/></g></g><g id="Half1" serif:id="Half"><g><rect x="107.744" y="40.715" width="0.184" height="1.169" style="stroke:#000;stroke-width:0.09px;"/></g><g><rect x="107.744" y="51.141" width="0.184" height="1.169" style="stroke:#000;stroke-width:0.09px;"/></g><g><path d="M113.634,46.605l0,-0.185l-1.169,0l0,0.185l1.169,0Z" style="stroke:#000;stroke-width:0.09px;"/></g><g><path d="M102.039,46.42l0,0.185l1.169,0l0,-0.185l-1.169,0Z" style="stroke:#000;stroke-width:0.09px;"/></g></g></g><g id="Hand-with-Base1" serif:id="Hand with Base"><path id="Base3" serif:id="Base" d="M109.392,44.957c0.858,0.859 0.858,2.253 0,3.111c-0.859,0.859 -2.253,0.859 -3.111,0c-0.859,-0.858 -0.859,-2.252 0,-3.111c0.858,-0.858 2.252,-0.858 3.111,0Z" style="fill:#a6a6a6;"/><g id="Hand1" serif:id="Hand"><path d="M110.929,44.6l-1.18,-1.18l-5.257,5.257l1.18,1.18l5.257,-5.257Z" style="fill:#a6a6a6;stroke:#a6a6a6;stroke-width:0.12px;"/><path d="M111.532,42.817l-0.574,1.754l-1.18,-1.18l1.754,-0.574Z" style="fill:#a6a6a6;stroke:#a6a6a6;stroke-width:0.12px;"/></g></g></g></g><g id="Audience"><g id="User"><path d="M17.918,110.564c3.509,0 6.607,-1.771 8.449,-4.467c2.434,1.377 4.093,4.862 4.022,8.071c-0.009,0.399 0.156,3.518 0.076,3.604c-0.123,0.132 -12.187,0.14 -12.539,0.14l0,0l-0.015,0l0,0l0.007,0c0,0 -12.421,-0.006 -12.547,-0.14c-0.079,-0.086 0.086,-3.205 0.077,-3.604c-0.072,-3.209 1.588,-6.694 4.021,-8.071c1.842,2.696 4.941,4.467 8.449,4.467l-0.007,0l0.015,0l-0.008,0Z" style="fill:#737373;stroke:#000;stroke-width:0.34px;"/><circle cx="17.918" cy="100.328" r="8.554" style="fill:#737373;stroke:#000;stroke-width:0.34px;"/></g><g id="User1" serif:id="User"><path d="M48.358,110.564c3.509,0 6.607,-1.771 8.449,-4.467c2.434,1.377 4.093,4.862 4.022,8.071c-0.009,0.399 0.156,3.518 0.076,3.604c-0.123,0.132 -12.187,0.14 -12.539,0.14l0,0l-0.015,0l0,0l0.007,0c0,0 -12.422,-0.006 -12.547,-0.14c-0.079,-0.086 0.085,-3.205 0.077,-3.604c-0.072,-3.209 1.588,-6.694 4.021,-8.071c1.842,2.696 4.941,4.467 8.449,4.467l-0.007,0l0.014,0l-0.007,0Z" style="fill:#737373;stroke:#000;stroke-width:0.34px;"/><circle cx="48.358" cy="100.328" r="8.554" style="fill:#737373;stroke:#000;stroke-width:0.34px;"/></g><g id="User2" serif:id="User"><path d="M78.798,110.564c3.508,0 6.607,-1.771 8.449,-4.467c2.434,1.377 4.093,4.862 4.022,8.071c-0.009,0.399 0.156,3.518 0.076,3.604c-0.124,0.132 -12.187,0.14 -12.539,0.14l0,0l-0.015,0l0,0l0.007,0c0,0 -12.422,-0.006 -12.547,-0.14c-0.08,-0.086 0.085,-3.205 0.076,-3.604c-0.071,-3.209 1.589,-6.694 4.022,-8.071c1.842,2.696 4.941,4.467 8.449,4.467l-0.007,0l0.014,0l-0.007,0Z" style="fill:#737373;stroke:#000;stroke-width:0.34px;"/><circle cx="78.798" cy="100.328" r="8.554" style="fill:#737373;stroke:#000;stroke-width:0.34px;"/></g><g id="User3" serif:id="User"><path d="M109.238,110.564c3.508,0 6.607,-1.771 8.449,-4.467c2.433,1.377 4.093,4.862 4.022,8.071c-0.009,0.399 0.155,3.518 0.076,3.604c-0.124,0.132 -12.187,0.14 -12.539,0.14l0,0l-0.016,0l0,0l0.008,0c0,0 -12.422,-0.006 -12.547,-0.14c-0.08,-0.086 0.085,-3.205 0.076,-3.604c-0.071,-3.209 1.588,-6.694 4.022,-8.071c1.842,2.696 4.94,4.467 8.449,4.467l-0.007,0l0.014,0l-0.007,0Z" style="fill:#737373;stroke:#000;stroke-width:0.34px;"/><circle cx="109.238" cy="100.328" r="8.554" style="fill:#737373;stroke:#000;stroke-width:0.34px;"/></g></g><defs><linearGradient id="_Linear1" x1="0" y1="0" x2="1" y2="0" gradientUnits="userSpaceOnUse" gradientTransform="matrix(23.8011,0,0,34.5374,98.0055,96.3809)"><stop offset="0" style="stop-color:#c0c0c0;stop-opacity:1"/><stop offset="1" style="stop-color:#8c8c8c;stop-opacity:1"/></linearGradient><radialGradient id="_Radial2" cx="0" cy="0" r="1" gradientUnits="userSpaceOnUse" gradientTransform="matrix(-6.05731,6.05731,-6.05731,-6.05731,107.836,67.0956)"><stop offset="0" style="stop-color:#000;stop-opacity:1"/><stop offset="0.7" style="stop-color:#717171;stop-opacity:1"/><stop offset="1" style="stop-color:#000;stop-opacity:1"/></radialGradient><radialGradient id="_Radial3" cx="0" cy="0" r="1" gradientUnits="userSpaceOnUse" gradientTransform="matrix(6.05731,6.05731,-6.05731,6.05731,107.836,46.5126)"><stop offset="0" style="stop-color:#000;stop-opacity:1"/><stop offset="0.7" style="stop-color:#717171;stop-opacity:1"/><stop offset="1" style="stop-color:#000;stop-opacity:1"/></radialGradient></defs></svg>